<?xml version="1.0" standalone="no"?><svg xmlns="http://www.w3.org/2000/svg" viewBox="0 0 1440 320"><path fill="#ef233c" fill-opacity="1" d="M0,160L24,149.3C48,139,96,117,144,112C192,107,240,117,288,144C336,171,384,213,432,208C480,203,528,149,576,144C624,139,672,181,720,192C768,203,816,181,864,181.3C912,181,960,203,1008,186.7C1056,171,1104,117,1152,96C1200,75,1248,85,1296,122.7C1344,160,1392,224,1416,256L1440,288L1440,0L1416,0C1392,0,1344,0,1296,0C1248,0,1200,0,1152,0C1104,0,1056,0,1008,0C960,0,912,0,864,0C816,0,768,0,720,0C672,0,624,0,576,0C528,0,480,0,432,0C384,0,336,0,288,0C240,0,192,0,144,0C96,0,48,0,24,0L0,0Z"></path></svg>