<svg id="visual" viewBox="0 0 900 600" width="900" height="600" xmlns="http://www.w3.org/2000/svg" xmlns:xlink="http://www.w3.org/1999/xlink" version="1.1"><path d="M0 140L21.5 142.5C43 145 86 150 128.8 153.5C171.7 157 214.3 159 257.2 152.8C300 146.7 343 132.3 385.8 131.2C428.7 130 471.3 142 514.2 145.2C557 148.3 600 142.7 642.8 141.8C685.7 141 728.3 145 771.2 146.2C814 147.3 857 145.7 878.5 144.8L900 144L900 0L878.5 0C857 0 814 0 771.2 0C728.3 0 685.7 0 642.8 0C600 0 557 0 514.2 0C471.3 0 428.7 0 385.8 0C343 0 300 0 257.2 0C214.3 0 171.7 0 128.8 0C86 0 43 0 21.5 0L0 0Z" fill="#8d99ae"></path><path d="M0 132L21.5 125.5C43 119 86 106 128.8 99.5C171.7 93 214.3 93 257.2 92.8C300 92.7 343 92.3 385.8 99.5C428.7 106.7 471.3 121.3 514.2 122C557 122.7 600 109.3 642.8 109.7C685.7 110 728.3 124 771.2 127C814 130 857 122 878.5 118L900 114L900 0L878.5 0C857 0 814 0 771.2 0C728.3 0 685.7 0 642.8 0C600 0 557 0 514.2 0C471.3 0 428.7 0 385.8 0C343 0 300 0 257.2 0C214.3 0 171.7 0 128.8 0C86 0 43 0 21.5 0L0 0Z" fill="#8d8bb9"></path><path d="M0 95L21.5 91.5C43 88 86 81 128.8 84.5C171.7 88 214.3 102 257.2 104.5C300 107 343 98 385.8 92.5C428.7 87 471.3 85 514.2 85.5C557 86 600 89 642.8 90.2C685.7 91.3 728.3 90.7 771.2 88.7C814 86.7 857 83.3 878.5 81.7L900 80L900 0L878.5 0C857 0 814 0 771.2 0C728.3 0 685.7 0 642.8 0C600 0 557 0 514.2 0C471.3 0 428.7 0 385.8 0C343 0 300 0 257.2 0C214.3 0 171.7 0 128.8 0C86 0 43 0 21.5 0L0 0Z" fill="#a375b5"></path><path d="M0 80L21.5 79C43 78 86 76 128.8 74.7C171.7 73.3 214.3 72.7 257.2 71.8C300 71 343 70 385.8 71.2C428.7 72.3 471.3 75.7 514.2 78.3C557 81 600 83 642.8 82.7C685.7 82.3 728.3 79.7 771.2 76.5C814 73.3 857 69.7 878.5 67.8L900 66L900 0L878.5 0C857 0 814 0 771.2 0C728.3 0 685.7 0 642.8 0C600 0 557 0 514.2 0C471.3 0 428.7 0 385.8 0C343 0 300 0 257.2 0C214.3 0 171.7 0 128.8 0C86 0 43 0 21.5 0L0 0Z" fill="#c1579c"></path><path d="M0 62L21.5 62C43 62 86 62 128.8 61.5C171.7 61 214.3 60 257.2 60.8C300 61.7 343 64.3 385.8 63.2C428.7 62 471.3 57 514.2 54.2C557 51.3 600 50.7 642.8 50.7C685.7 50.7 728.3 51.3 771.2 51.7C814 52 857 52 878.5 52L900 52L900 0L878.5 0C857 0 814 0 771.2 0C728.3 0 685.7 0 642.8 0C600 0 557 0 514.2 0C471.3 0 428.7 0 385.8 0C343 0 300 0 257.2 0C214.3 0 171.7 0 128.8 0C86 0 43 0 21.5 0L0 0Z" fill="#d62f6e"></path><path d="M0 27L21.5 29C43 31 86 35 128.8 35.8C171.7 36.7 214.3 34.3 257.2 34.3C300 34.3 343 36.7 385.8 35.2C428.7 33.7 471.3 28.3 514.2 26.8C557 25.3 600 27.7 642.8 28.5C685.7 29.3 728.3 28.7 771.2 30.8C814 33 857 38 878.5 40.5L900 43L900 0L878.5 0C857 0 814 0 771.2 0C728.3 0 685.7 0 642.8 0C600 0 557 0 514.2 0C471.3 0 428.7 0 385.8 0C343 0 300 0 257.2 0C214.3 0 171.7 0 128.8 0C86 0 43 0 21.5 0L0 0Z" fill="#d80032"></path></svg>